<?xml version="1.0" encoding="UTF-8" standalone="no"?>
<svg
   version="1.1"
   width="2000"
   height="1500"
   viewBox="0 0 2000 1500"
   id="svg7"
   sodipodi:docname="talka-logo.svg"
   inkscape:version="1.3.2 (091e20e, 2023-11-25)"
   xmlns:inkscape="http://www.inkscape.org/namespaces/inkscape"
   xmlns:sodipodi="http://sodipodi.sourceforge.net/DTD/sodipodi-0.dtd"
   xmlns="http://www.w3.org/2000/svg"
   xmlns:svg="http://www.w3.org/2000/svg">
  <defs
     id="defs7" />
  <sodipodi:namedview
     id="namedview7"
     pagecolor="#ffffff"
     bordercolor="#000000"
     borderopacity="0.25"
     inkscape:showpageshadow="2"
     inkscape:pageopacity="0.0"
     inkscape:pagecheckerboard="0"
     inkscape:deskcolor="#d1d1d1"
     inkscape:zoom="0.46973299"
     inkscape:cx="1089.9809"
     inkscape:cy="511.993"
     inkscape:window-width="1800"
     inkscape:window-height="1126"
     inkscape:window-x="0"
     inkscape:window-y="43"
     inkscape:window-maximized="0"
     inkscape:current-layer="svg6" />
  <rect
     width="2000"
     height="1500"
     x="0"
     y="0"
     id="background"
     stroke="transparent"
     fill="#2f5651"
     style="fill:none;fill-opacity:1;stroke:none" />
  <svg
     xml:space="preserve"
     width="1500"
     height="1125"
     data-version="2"
     data-id="lg_hJVF4gbYsIkDPaUj4e"
     viewBox="0 0 563 341"
     x="250"
     y="187.5"
     version="1.1"
     id="svg6"
     style="stroke-width:0.999888;stroke-dasharray:none;stroke:none"><rect
       width="100%"
       height="100%"
       fill="transparent"
       id="rect1"
       style="stroke-width:0.999888;stroke-dasharray:none;stroke:none" /><path
       fill="#bfd7b7"
       d="M172.065 117.99v-15.58h77.88v15.58h-30.63v108.32h-16.63V117.99Z"
       id="path1"
       style="stroke-width:0.999888;stroke-dasharray:none;stroke:none;fill:#305550;fill-opacity:1" /><rect
       width="77.88"
       height="123.9"
       x="-38.94"
       y="-61.95"
       fill="none"
       rx="0"
       ry="0"
       transform="translate(211.5 164.86)"
       id="rect2"
       style="stroke-width:0.999888;stroke-dasharray:none;stroke:none" /><path
       fill="#bfd7b7"
       d="M312.245 176.4v15.93q-6.73-5.14-16.46-5.14-8.32 0-12.92 3.28-4.6 3.27-4.6 9.29 0 11.68 17.34 11.68h23.37v-33.8q0-21.42-20.89-21.42h-28.32v-14.87h29.2q17.17 0 26.38 8.5 9.2 8.49 9.2 24.42v52.04h-39.47q-15.04 0-23.89-6.73-8.85-6.72-8.85-19.64 0-12.92 9.38-19.65 9.38-6.73 23.54-6.73 7.96 0 16.99 2.84"
       id="path2"
       style="stroke-width:0.999888;stroke-dasharray:none;stroke:none;fill:#305550;fill-opacity:1" /><rect
       width="72.21"
       height="84.96"
       x="-36.1"
       y="-42.48"
       fill="none"
       rx="0"
       ry="0"
       transform="translate(298.94 184.33)"
       id="rect3"
       style="stroke-width:0.999888;stroke-dasharray:none;stroke:none" /><path
       fill="#bfd7b7"
       d="M354.015 192.68v-90.27h15.93v90.27q0 6.37 1.51 10.36 1.5 3.98 4.69 5.66 3.18 1.68 6.19 2.21 3.01.53 7.97.53v14.87q-19.83 0-28.06-7.61t-8.23-26.02"
       id="path3"
       style="stroke-width:0.999888;stroke-dasharray:none;stroke:none;fill:#305550;fill-opacity:1" /><rect
       width="36.29"
       height="123.9"
       x="-18.14"
       y="-61.95"
       fill="none"
       rx="0"
       ry="0"
       transform="translate(372.66 164.86)"
       id="rect4"
       style="stroke-width:0.999888;stroke-dasharray:none;stroke:none" /><path
       fill="#bfd7b7"
       d="M450.655 141.35h17.17l-21.41 36.99q21.77 5.84 21.77 35.23v12.74h-15.58v-12.92q0-11.86-6.99-18.32-6.99-6.46-19.91-6.46-4.07 0-8.32.53v37.17h-15.58v-123.9h15.58v72.75q7.43-1.06 14.87 0Z"
       id="path4"
       style="stroke-width:0.999888;stroke-dasharray:none;stroke:none;fill:#305550;fill-opacity:1" /><rect
       width="66.38"
       height="123.9"
       x="-33.19"
       y="-61.95"
       fill="none"
       rx="0"
       ry="0"
       transform="translate(435.5 164.86)"
       id="rect5"
       style="stroke-width:0.999888;stroke-dasharray:none;stroke:none" /><path
       fill="#bfd7b7"
       d="M534.025 176.4v15.93q-6.73-5.14-16.46-5.14-8.32 0-12.92 3.28-4.6 3.27-4.6 9.29 0 11.68 17.34 11.68h23.37v-33.8q0-21.42-20.89-21.42h-28.32v-14.87h29.21q17.16 0 26.37 8.5 9.2 8.49 9.2 24.42v52.04h-39.47q-15.04 0-23.89-6.73-8.85-6.72-8.85-19.64 0-12.92 9.38-19.65 9.38-6.73 23.54-6.73 7.96 0 16.99 2.84"
       id="path5"
       style="stroke-width:0.999888;stroke-dasharray:none;stroke:none;fill:#305550;fill-opacity:1" /><rect
       width="72.21"
       height="84.96"
       x="-36.1"
       y="-42.48"
       fill="none"
       rx="0"
       ry="0"
       transform="translate(520.72 184.33)"
       id="rect6"
       style="stroke-width:0.999888;stroke-dasharray:none;stroke:none" /><path
       fill="#cde895"
       d="M339.983 68.703V3.348H5.68v334.303h334.303v-65.354h-5.443v59.911H11.123V8.791H334.54v59.912z"
       id="path6"
       style="stroke-width:0.999888;stroke-dasharray:none;stroke:none;fill:#2f5651;fill-opacity:1" /></svg>
</svg>
